<svg id="link" xmlns="http://www.w3.org/2000/svg" width="29.202" height="29.202" viewBox="0 0 29.202 29.202">
  <path id="Path_736" data-name="Path 736" d="M18.1,18.358l2.505,2.505,5.01-5.01A7.086,7.086,0,0,0,15.6,5.833l-5.01,5.01,2.505,2.505,5.01-5.01a3.543,3.543,0,0,1,5.01,5.01Z" transform="translate(1.51 -3.757)" fill="#fff"/>
  <path id="Path_737" data-name="Path 737" d="M18.358,18.1l2.505,2.505-5.01,5.01A7.086,7.086,0,0,1,5.833,15.6l5.01-5.01,2.505,2.505L8.338,18.1a3.543,3.543,0,0,0,5.01,5.01Z" transform="translate(-3.757 1.51)" fill="#fff"/>
  <path id="Path_738" data-name="Path 738" d="M19.418,11.9A1.771,1.771,0,0,0,16.913,9.4L9.4,16.913A1.771,1.771,0,0,0,11.9,19.418Z" transform="translate(0.193 0.193)" fill="#fff"/>
</svg>
