<svg id="options" xmlns="http://www.w3.org/2000/svg" width="30.465" height="28.772" viewBox="0 0 30.465 28.772">
  <path id="Path_943" data-name="Path 943" d="M9.77,3a6.773,6.773,0,0,1,6.557,5.077H30.08v3.385H16.327A6.771,6.771,0,1,1,9.77,3Zm0,10.155A3.385,3.385,0,1,0,6.385,9.77,3.385,3.385,0,0,0,9.77,13.155Z" transform="translate(-3 -3)" fill="#fff" fill-rule="evenodd"/>
  <path id="Path_944" data-name="Path 944" d="M25.31,25.54a6.773,6.773,0,0,1-6.557-5.077H5V17.077H18.753A6.771,6.771,0,1,1,25.31,25.54Zm0-3.385a3.385,3.385,0,1,0-3.385-3.385A3.385,3.385,0,0,0,25.31,22.155Z" transform="translate(-1.615 3.232)" fill="#fff" fill-rule="evenodd"/>
</svg>
