<svg id="Group_9" data-name="Group 9" xmlns="http://www.w3.org/2000/svg" width="33.833" height="33.833" viewBox="0 0 33.833 33.833">
  <path id="Path_1041" data-name="Path 1041" d="M20.3,11.151A6.151,6.151,0,1,1,14.151,5,6.152,6.152,0,0,1,20.3,11.151Zm-3.076,0a3.076,3.076,0,1,1-3.076-3.076A3.076,3.076,0,0,1,17.227,11.151Z" transform="translate(2.765 1.152)" fill="#fff" fill-rule="evenodd"/>
  <path id="Path_1042" data-name="Path 1042" d="M17.917,1A16.917,16.917,0,1,0,34.833,17.917,16.917,16.917,0,0,0,17.917,1ZM4.076,17.917A13.781,13.781,0,0,0,7.01,26.439a13.843,13.843,0,0,1,21.912-.128A13.841,13.841,0,1,0,4.076,17.917ZM17.917,31.757a13.783,13.783,0,0,1-8.723-3.094,10.767,10.767,0,0,1,17.572-.1A13.785,13.785,0,0,1,17.917,31.757Z" transform="translate(-1 -1)" fill="#fff" fill-rule="evenodd"/>
</svg>
