<svg xmlns="http://www.w3.org/2000/svg" width="24.169" height="28.015" viewBox="0 0 24.169 28.015">
  <g id="Group_8" data-name="Group 8" transform="translate(-135.738 -908.691)">
    <g id="Path_847" data-name="Path 847" transform="translate(139.676 919.742) rotate(90)" fill="#fff">
      <path d="M 14.64507675170898 3.587118864059448 L 1.61855685710907 3.587118864059448 C 0.5330868363380432 3.587118864059448 -0.3500031232833862 2.704028844833374 -0.3500031232833862 1.618558883666992 C -0.3500031232833862 0.5330888628959656 0.5330868363380432 -0.3500011265277863 1.61855685710907 -0.3500011265277863 L 14.64507675170898 -0.3500011265277863 C 15.73054695129395 -0.3500011265277863 16.6136360168457 0.5330888628959656 16.6136360168457 1.618558883666992 C 16.6136360168457 2.704028844833374 15.73054695129395 3.587118864059448 14.64507675170898 3.587118864059448 Z" stroke="none"/>
      <path d="M 1.618556976318359 -1.192092895507812e-06 C 0.7247066497802734 -1.192092895507812e-06 -3.814697265625e-06 0.7247087955474854 -3.814697265625e-06 1.618558883666992 C -3.814697265625e-06 2.512408971786499 0.7247066497802734 3.23711895942688 1.618556976318359 3.23711895942688 L 14.64507675170898 3.23711895942688 C 15.53892707824707 3.23711895942688 16.26363754272461 2.512408971786499 16.26363754272461 1.618558883666992 C 16.26363754272461 0.7247087955474854 15.53892707824707 -1.192092895507812e-06 14.64507675170898 -1.192092895507812e-06 L 1.618556976318359 -1.192092895507812e-06 M 1.618556976318359 -0.7000010013580322 L 14.64507675170898 -0.7000010013580322 C 15.9235372543335 -0.7000010013580322 16.96363639831543 0.3400988578796387 16.96363639831543 1.618558883666992 C 16.96363639831543 2.897018909454346 15.9235372543335 3.937119007110596 14.64507675170898 3.937119007110596 L 1.618556976318359 3.937119007110596 C 0.3400964736938477 3.937119007110596 -0.7000026702880859 2.897018909454346 -0.7000026702880859 1.618558883666992 C -0.7000026702880859 0.3400988578796387 0.3400964736938477 -0.7000010013580322 1.618556976318359 -0.7000010013580322 Z" stroke="none" fill="#fff"/>
    </g>
    <g id="Path_848" data-name="Path 848" transform="translate(149.441 909.391) rotate(90)" fill="#fff">
      <path d="M 25.29036331176758 3.58695650100708 L 1.324334025382996 3.58695650100708 C 0.4011039733886719 3.58695650100708 -0.349996030330658 2.703866481781006 -0.349996030330658 1.618396401405334 C -0.349996030330658 0.5330163836479187 0.4011039733886719 -0.3500036001205444 1.324334025382996 -0.3500036001205444 L 25.29036331176758 -0.3500036001205444 C 26.21359443664551 -0.3500036001205444 26.9647045135498 0.5330163836479187 26.9647045135498 1.618396401405334 C 26.9647045135498 2.703866481781006 26.21359443664551 3.58695650100708 25.29036331176758 3.58695650100708 Z" stroke="none"/>
      <path d="M 1.324333190917969 -3.576278686523438e-06 C 0.5929241180419922 -3.576278686523438e-06 3.814697265625e-06 0.7245464324951172 3.814697265625e-06 1.618396401405334 C 3.814697265625e-06 2.512406349182129 0.5929241180419922 3.236956357955933 1.324333190917969 3.236956357955933 L 25.29036331176758 3.236956357955933 C 26.0217342376709 3.236956357955933 26.61470413208008 2.512406349182129 26.61470413208008 1.618396401405334 C 26.61470413208008 0.7245464324951172 26.0217342376709 -3.576278686523438e-06 25.29036331176758 -3.576278686523438e-06 L 1.324333190917969 -3.576278686523438e-06 M 1.324333190917969 -0.7000036239624023 L 25.29036331176758 -0.7000036239624023 C 26.40658378601074 -0.7000036239624023 27.31470489501953 0.3400263786315918 27.31470489501953 1.618396401405334 C 27.31470489501953 2.896856307983398 26.40658378601074 3.936956405639648 25.29036331176758 3.936956405639648 L 1.324333190917969 3.936956405639648 C 0.2081146240234375 3.936956405639648 -0.6999969482421875 2.896856307983398 -0.6999969482421875 1.618396401405334 C -0.6999969482421875 0.3400263786315918 0.2081146240234375 -0.7000036239624023 1.324333190917969 -0.7000036239624023 Z" stroke="none" fill="#fff"/>
    </g>
    <g id="Path_849" data-name="Path 849" transform="translate(159.208 915.017) rotate(90)" fill="#fff">
      <path d="M 19.49747657775879 3.587100267410278 L 1.49203622341156 3.587100267410278 C 0.4763362407684326 3.587100267410278 -0.3500037789344788 2.704010248184204 -0.3500037789344788 1.618540287017822 C -0.3500037789344788 0.5330802798271179 0.4763362407684326 -0.3499996960163116 1.49203622341156 -0.3499996960163116 L 19.49747657775879 -0.3499996960163116 C 20.51319694519043 -0.3499996960163116 21.33953666687012 0.5330802798271179 21.33953666687012 1.618540287017822 C 21.33953666687012 2.704010248184204 20.51319694519043 3.587100267410278 19.49747657775879 3.587100267410278 Z" stroke="none"/>
      <path d="M 19.49747657775879 3.23710036277771 C 20.32146644592285 3.23710036277771 20.98953628540039 2.512440204620361 20.98953628540039 1.618540287017822 C 20.98953628540039 0.7246403098106384 20.32146644592285 3.005981454862194e-07 19.49747657775879 3.005981454862194e-07 L 1.49203622341156 3.005981454862194e-07 C 0.6680062413215637 3.005981454862194e-07 -3.764648454307462e-06 0.7246403098106384 -3.764648454307462e-06 1.618540287017822 C -3.764648454307462e-06 2.512440204620361 0.6680062413215637 3.23710036277771 1.49203622341156 3.23710036277771 L 19.49747657775879 3.23710036277771 M 19.49747657775879 3.937100410461426 L 1.49203622341156 3.937100410461426 C 0.2833462357521057 3.937100410461426 -0.7000037431716919 2.897000312805176 -0.7000037431716919 1.618540287017822 C -0.7000037431716919 0.3400903046131134 0.2833462357521057 -0.6999996900558472 1.49203622341156 -0.6999996900558472 L 19.49747657775879 -0.6999996900558472 C 20.70618629455566 -0.6999996900558472 21.68953704833984 0.3400903046131134 21.68953704833984 1.618540287017822 C 21.68953704833984 2.897000312805176 20.70618629455566 3.937100410461426 19.49747657775879 3.937100410461426 Z" stroke="none" fill="#fff"/>
    </g>
  </g>
</svg>
