<svg id="sand-clock" xmlns="http://www.w3.org/2000/svg" width="20.317" height="33.862" viewBox="0 0 20.317 33.862">
  <path id="Path_1113" data-name="Path 1113" d="M14.386,6H11V7.693a1.693,1.693,0,0,0,3.386,0Z" transform="translate(-2.534 0.772)" fill="#fff"/>
  <path id="Path_1114" data-name="Path 1114" d="M6,2V5.386H7.693v5.079a8.466,8.466,0,0,0,8.466,8.466A8.466,8.466,0,0,0,7.693,27.4v5.079H6v3.386H26.317V32.476H24.624V27.4a8.466,8.466,0,0,0-8.466-8.466,8.466,8.466,0,0,0,8.466-8.466V5.386h1.693V2Zm5.079,3.386H21.238v5.079a5.079,5.079,0,0,1-10.159,0Zm0,22.011v5.079H21.238V27.4a5.079,5.079,0,0,0-10.159,0Z" transform="translate(-6 -2)" fill="#fff" fill-rule="evenodd"/>
</svg>
