<svg id="calculator" xmlns="http://www.w3.org/2000/svg" width="23.84" height="29.137" viewBox="0 0 23.84 29.137">
  <path id="Path_180" data-name="Path 180" d="M20.244,5H7V7.649H20.244Z" transform="translate(-1.702 0.298)" fill="#fff"/>
  <path id="Path_181" data-name="Path 181" d="M7,9H9.649v2.649H7Z" transform="translate(-1.702 1.595)" fill="#fff"/>
  <path id="Path_182" data-name="Path 182" d="M9.649,13H7v2.649H9.649Z" transform="translate(-1.702 2.893)" fill="#fff"/>
  <path id="Path_183" data-name="Path 183" d="M7,17H9.649v2.649H7Z" transform="translate(-1.702 4.191)" fill="#fff"/>
  <path id="Path_184" data-name="Path 184" d="M13.649,9H11v2.649h2.649Z" transform="translate(-0.405 1.595)" fill="#fff"/>
  <path id="Path_185" data-name="Path 185" d="M11,13h2.649v2.649H11Z" transform="translate(-0.405 2.893)" fill="#fff"/>
  <path id="Path_186" data-name="Path 186" d="M13.649,17H11v2.649h2.649Z" transform="translate(-0.405 4.191)" fill="#fff"/>
  <path id="Path_187" data-name="Path 187" d="M15,9h2.649v2.649H15Z" transform="translate(0.893 1.595)" fill="#fff"/>
  <path id="Path_188" data-name="Path 188" d="M17.649,13H15v7.947h2.649Z" transform="translate(0.893 2.893)" fill="#fff"/>
  <path id="Path_189" data-name="Path 189" d="M3,3.649A2.649,2.649,0,0,1,5.649,1H24.191A2.649,2.649,0,0,1,26.84,3.649v23.84a2.649,2.649,0,0,1-2.649,2.649H5.649A2.649,2.649,0,0,1,3,27.488Zm2.649,0H24.191v23.84H5.649Z" transform="translate(-3 -1)" fill="#fff" fill-rule="evenodd"/>
</svg>
